<?xml version="1.0" encoding="UTF-8"?>
<svg version="1.1" xmlns="http://www.w3.org/2000/svg" width="500" height="500">
<path d="M0 0 C6.90502248 3.83386374 11.43503631 7.85000311 14.15234375 15.41015625 C16.52460594 24.67660657 14.14238265 34.49996441 12.3347168 43.72021484 C12.04118631 45.25775893 12.04118631 45.25775893 11.74172592 46.82636452 C11.09677374 50.19661114 10.44296843 53.56507395 9.7890625 56.93359375 C9.32929667 59.32663739 8.87008504 61.71978757 8.41139221 64.11303711 C7.18892842 70.48272232 5.9587609 76.85089565 4.72676086 83.21874237 C3.58047993 89.14571848 2.44026618 95.07386303 1.29945207 101.00189328 C-0.57525162 110.74284149 -2.45316337 120.48316663 -4.33461189 130.22281456 C-6.60204871 141.96118136 -8.85790627 153.70161285 -11.09093285 165.44657326 C-15.53321293 188.80633962 -20.08894546 212.12847267 -25.22265625 235.34765625 C-25.42548218 236.26899353 -25.62830811 237.19033081 -25.83728027 238.1395874 C-33.35992924 272.13124734 -33.35992924 272.13124734 -45.72265625 280.78515625 C-51.6610952 284.03622216 -58.06386289 285.01418974 -64.72265625 283.78515625 C-68.79310045 281.97743632 -72.17673695 279.46038544 -75.72265625 276.78515625 C-76.97487618 275.85625264 -78.2275047 274.92789965 -79.48046875 274 C-82.22689516 271.95533023 -84.96020346 269.89431994 -87.6875 267.82421875 C-91.28194572 265.10386719 -94.92137608 262.45602642 -98.59765625 259.84765625 C-103.99212968 256.01999717 -109.36387064 252.1626607 -114.72265625 248.28515625 C-122.36838944 242.75562365 -130.03699485 237.25902763 -137.72265625 231.78515625 C-141.65479926 233.37455051 -144.05285971 235.94858127 -146.97265625 238.97265625 C-151.38758757 243.47284041 -155.85315715 247.77839634 -160.72265625 251.78515625 C-161.24263184 252.2136084 -161.76260742 252.64206055 -162.29833984 253.08349609 C-181.27819246 268.62884871 -181.27819246 268.62884871 -193.72265625 267.78515625 C-199.79667152 265.76048449 -204.99660284 263.21010636 -207.93882751 257.37194824 C-211.19548077 249.46466885 -213.80824904 241.45122023 -216.2265625 233.25390625 C-216.63520208 231.88714466 -217.04447162 230.52057127 -217.45433044 229.1541748 C-218.5219392 225.58983317 -219.58221641 222.02335682 -220.64050293 218.45623779 C-222.33488171 212.74986138 -224.04092823 207.04696132 -225.74638176 201.34388733 C-226.3333815 199.37731639 -226.91740982 197.40988436 -227.50086975 195.44226074 C-228.22074387 193.02588836 -228.9535424 190.61331806 -229.70095825 188.20532227 C-230.37747494 185.94066148 -230.98926367 183.65556975 -231.53219604 181.35522461 C-232.9236573 175.56646963 -232.9236573 175.56646963 -236.75927734 171.28501892 C-239.38911887 170.18537703 -241.95435052 169.46235258 -244.72265625 168.78515625 C-246.70678623 168.17381196 -248.68990443 167.55917647 -250.67211914 166.94165039 C-252.84525472 166.3134879 -255.01971673 165.68990058 -257.1953125 165.0703125 C-259.58277906 164.37728641 -261.97014588 163.68391664 -264.35742188 162.99023438 C-268.07761926 161.91528136 -271.79872866 160.84377297 -275.52172852 159.77856445 C-279.14495998 158.73963562 -282.76402676 157.68710589 -286.3828125 156.6328125 C-287.48617447 156.32118668 -288.58953644 156.00956085 -289.72633362 155.68849182 C-306.74788509 150.70228827 -306.74788509 150.70228827 -311.22265625 143.22265625 C-311.68671875 142.47886719 -312.15078125 141.73507813 -312.62890625 140.96875 C-315.49136501 135.25405555 -315.4895528 129.31140372 -313.66015625 123.28515625 C-309.69242147 115.19913572 -303.90789431 110.67857702 -295.59375 107.69921875 C-294.7084108 107.36022552 -293.82307159 107.0212323 -292.91090393 106.67196655 C-290.00159453 105.56328178 -287.08133206 104.48713985 -284.16015625 103.41015625 C-282.09477253 102.6287574 -280.03033382 101.84485664 -277.96679688 101.05859375 C-273.68181445 99.42811837 -269.39297861 97.80845111 -265.10107422 96.19628906 C-256.21956422 92.85090965 -247.38966899 89.37535631 -238.55838013 85.90008545 C-233.78223468 84.02223547 -229.00224137 82.15422984 -224.22265625 80.28515625 C-222.30597143 79.53520265 -220.38930475 78.78520267 -218.47265625 78.03515625 C-183.97265625 64.53515625 -149.47265625 51.03515625 -114.97265625 37.53515625 C-114.02406235 37.16396667 -113.07546844 36.7927771 -112.09812927 36.41033936 C-110.17988766 35.6597244 -108.26164425 34.90911406 -106.34339905 34.1585083 C-101.57581424 32.29295471 -96.80825996 30.42732318 -92.04077148 28.56152344 C-83.12901418 25.07392132 -74.2169579 21.58708914 -65.30386353 18.10290527 C-61.13369412 16.47270691 -56.96369166 14.84208174 -52.79370117 13.21142578 C-50.82243001 12.44070563 -48.85107877 11.67019026 -46.87963867 10.89990234 C-45.02194397 10.17404706 -43.16437122 9.44787959 -41.30693054 8.72137451 C-39.54870239 8.03389869 -37.79009665 7.34738762 -36.03108215 6.66192627 C-32.10031896 5.12648267 -28.18141996 3.5712022 -24.28588867 1.94824219 C-23.60259995 1.66591736 -22.91931122 1.38359253 -22.21531677 1.0927124 C-20.41747203 0.34655587 -18.62405098 -0.41023558 -16.83105469 -1.16796875 C-10.75386343 -3.21470109 -5.77850978 -2.57835946 0 0 Z M-18.7890625 26.50390625 C-19.88163361 26.93762794 -19.88163361 26.93762794 -20.99627686 27.38011169 C-22.58668593 28.01179762 -24.17649322 28.6450002 -25.76577759 29.2795105 C-30.09752483 31.00858889 -34.43388421 32.72604196 -38.76953125 34.4453125 C-39.67347122 34.80412003 -40.57741119 35.16292755 -41.50874329 35.53260803 C-51.00333984 39.29911475 -60.51764139 43.01452466 -70.03515625 46.72265625 C-71.75570643 47.39336675 -73.47624673 48.06410258 -75.19677734 48.73486328 C-78.65482177 50.08284346 -82.1130072 51.43046113 -85.57128906 52.77783203 C-94.01865757 56.06917266 -102.46444385 59.36456883 -110.91015625 62.66015625 C-112.16610092 63.15018631 -112.16610092 63.15018631 -113.44741821 63.65011597 C-128.18461687 69.40036115 -142.91668357 75.16367651 -157.64755249 80.93011475 C-171.99841911 86.54765912 -186.35299767 92.15559777 -200.71072388 97.75558472 C-216.76909815 104.01915999 -232.82112446 110.29890541 -248.87109375 116.58398438 C-260.14901624 120.99970326 -271.43242115 125.40101136 -282.72265625 129.78515625 C-281.88933376 132.01960128 -281.88933376 132.01960128 -279.42982483 132.64172363 C-278.41407883 132.92688843 -277.39833282 133.21205322 -276.35180664 133.50585938 C-274.62849876 133.99777771 -274.62849876 133.99777771 -272.87037659 134.49963379 C-271.61635544 134.8516687 -270.36233429 135.20370361 -269.0703125 135.56640625 C-267.77243705 135.94154609 -266.47503314 136.31832083 -265.17808533 136.69665527 C-259.66824063 138.3037364 -254.15711213 139.9046525 -248.62963867 141.45019531 C-245.24817913 142.39679498 -241.87746639 143.37566835 -238.51122856 144.37498474 C-236.62256785 144.92615646 -234.72403765 145.44314874 -232.82545471 145.95910645 C-224.07054896 148.58550702 -218.13358764 152.30915904 -212.72265625 159.78515625 C-210.82795368 163.47690942 -209.68231896 167.16548753 -208.62109375 171.16796875 C-208.30651215 172.24345978 -207.99193054 173.31895081 -207.66781616 174.42703247 C-207.00220022 176.70856043 -206.34976072 178.99396941 -205.70983887 181.28283691 C-204.39466311 185.94880792 -202.98229467 190.58309691 -201.57232666 195.22113037 C-199.44311778 202.2348868 -197.35712947 209.26170314 -195.27001953 216.28808594 C-194.22995876 219.78582779 -193.18377302 223.28169017 -192.13671875 226.77734375 C-191.82215729 227.84274384 -191.50759583 228.90814392 -191.1835022 230.00582886 C-190.88914276 230.98600983 -190.59478333 231.9661908 -190.29150391 232.97607422 C-190.03583649 233.83554657 -189.78016907 234.69501892 -189.51675415 235.58053589 C-188.73564847 238.02556978 -188.73564847 238.02556978 -186.72265625 240.78515625 C-172.72796657 229.31814966 -172.72796657 229.31814966 -159.72265625 216.78515625 C-159.72265625 216.12515625 -159.72265625 215.46515625 -159.72265625 214.78515625 C-161.83680288 213.14015169 -163.95342255 211.6091254 -166.16015625 210.09765625 C-167.44857521 209.19103932 -168.7363353 208.28348533 -170.0234375 207.375 C-172.18292907 205.86032986 -174.34687786 204.35300283 -176.515625 202.8515625 C-182.71900062 198.35229677 -185.33023744 193.96241267 -187.72265625 186.78515625 C-188.57466381 178.2650807 -187.37230043 171.67341025 -182.21484375 164.765625 C-180.45518238 162.69086147 -178.62184762 160.73294897 -176.72265625 158.78515625 C-176.0059375 158.04136719 -175.28921875 157.29757812 -174.55078125 156.53125 C-170.42328269 152.3254713 -166.15933019 148.36551232 -161.6875 144.53125 C-158.90703793 142.06034236 -156.33147407 139.40348685 -153.72265625 136.75390625 C-151.15960397 134.23090166 -148.44919801 131.90952808 -145.72265625 129.56640625 C-143.63928547 127.71090415 -141.67984418 125.77292524 -139.72265625 123.78515625 C-136.52236103 120.53485642 -133.18041049 117.5379138 -129.72265625 114.56640625 C-127.63928547 112.71090415 -125.67984418 110.77292524 -123.72265625 108.78515625 C-118.71827471 103.71181669 -113.46188099 99.01339041 -107.72265625 94.78515625 C-103.98212379 98.42336411 -100.31696662 102.13091151 -96.78515625 105.97265625 C-96.19863281 106.60558594 -95.61210937 107.23851562 -95.0078125 107.890625 C-93.72265625 109.78515625 -93.72265625 109.78515625 -93.72265625 113.78515625 C-95.84765625 116.3359375 -95.84765625 116.3359375 -98.72265625 119.09765625 C-99.22450439 119.58403564 -99.72635254 120.07041504 -100.2434082 120.5715332 C-103.67138608 123.8682338 -107.2104436 127.02218863 -110.828125 130.109375 C-113.5892595 132.55169809 -116.13734436 135.19069886 -118.72265625 137.81640625 C-121.28570853 140.33941084 -123.99611449 142.66078442 -126.72265625 145.00390625 C-128.80602703 146.85940835 -130.76546832 148.79738726 -132.72265625 150.78515625 C-135.92295147 154.03545608 -139.26490201 157.0323987 -142.72265625 160.00390625 C-145.50602279 162.48284208 -148.08922049 165.14172545 -150.703125 167.796875 C-153.35164103 170.40440819 -156.13543105 172.82933108 -158.9609375 175.2421875 C-160.62081436 176.69595991 -162.18199606 178.20657211 -163.72265625 179.78515625 C-162.3675854 182.95305781 -161.03483529 184.59130944 -158.22265625 186.5625 C-157.50980469 187.06910156 -156.79695313 187.57570313 -156.0625 188.09765625 C-155.29035156 188.63390625 -154.51820313 189.17015625 -153.72265625 189.72265625 C-152.07666422 190.88779668 -150.43083534 192.05316762 -148.78515625 193.21875 C-147.52058594 194.10796143 -147.52058594 194.10796143 -146.23046875 195.01513672 C-142.37089699 197.73923089 -138.54771188 200.51291851 -134.72265625 203.28515625 C-133.22285402 204.36876336 -131.72285333 205.45209585 -130.22265625 206.53515625 C-103.22265625 226.03515625 -103.22265625 226.03515625 -100.97143555 227.66113281 C-99.47562478 228.74137743 -97.97969432 229.82145632 -96.48364258 230.90136719 C-92.66853467 233.65559169 -88.85572979 236.41291428 -85.046875 239.17578125 C-78.13304453 244.18816358 -71.21362796 249.19317191 -64.22265625 254.09765625 C-63.20171875 254.81566406 -62.18078125 255.53367187 -61.12890625 256.2734375 C-58.91402161 257.96248107 -58.91402161 257.96248107 -56.72265625 257.78515625 C-53.97976411 249.30455624 -51.70929439 240.85466015 -49.90234375 232.12890625 C-49.64633896 230.91408569 -49.39033417 229.69926514 -49.12657166 228.44763184 C-48.42410007 225.10069611 -47.72791454 221.752594 -47.03583145 218.40350342 C-46.59225874 216.25906213 -46.14651283 214.11508205 -45.70028687 211.97119141 C-34.47495126 157.98806721 -24.21844323 103.79737818 -14.09765625 49.59765625 C-13.86519196 48.3537915 -13.63272766 47.10992676 -13.39321899 45.82836914 C-12.75833456 42.42510162 -12.12639795 39.02130594 -11.49609375 35.6171875 C-11.31268936 34.63248978 -11.12928497 33.64779205 -10.94032288 32.633255 C-10.77745285 31.7485704 -10.61458282 30.8638858 -10.44677734 29.95239258 C-10.30565521 29.18921219 -10.16453308 28.4260318 -10.01913452 27.63972473 C-9.67003648 25.76902189 -9.67003648 25.76902189 -9.72265625 23.78515625 C-12.96743161 23.78515625 -15.81291815 25.309026 -18.7890625 26.50390625 Z " fill="#03AB81" transform="translate(399.72265625,109.21484375)"/>
<path d="M0 0 C1.00546875 0.79792969 2.0109375 1.59585938 3.046875 2.41796875 C4.06265625 3.22878906 5.0784375 4.03960937 6.125 4.875 C7.05570312 5.61492187 7.98640625 6.35484375 8.9453125 7.1171875 C9.62335938 7.73851562 10.30140625 8.35984375 11 9 C11 9.66 11 10.32 11 11 C11.598125 11.268125 12.19625 11.53625 12.8125 11.8125 C14.99847854 12.99917406 16.41332594 14.09599113 18 16 C18 16.66 18 17.32 18 18 C18.66 18 19.32 18 20 18 C22.58228746 20.41992807 24.74905567 23.27537869 27 26 C27.4419873 26.53109375 27.88397461 27.0621875 28.33935547 27.609375 C39.85813415 41.50231282 49.45930678 56.11521526 58 72 C58.59425781 73.08152344 59.18851562 74.16304687 59.80078125 75.27734375 C72.48270207 99.32926254 79.67097111 126.10792729 83 153 C83.0935376 153.69649658 83.1870752 154.39299316 83.28344727 155.1105957 C90.57048257 216.26003776 72.23409869 277.89998678 34.46728516 326.14208984 C33.740979 327.06175537 33.740979 327.06175537 33 328 C32.55575684 328.56283691 32.11151367 329.12567383 31.65380859 329.70556641 C20.93234862 343.13662438 8.66059394 355.56894865 -5 366 C-6.18788398 366.93961893 -7.37535633 367.8797584 -8.5625 368.8203125 C-37.50712479 391.45672785 -72.12664161 405.8206702 -108 413 C-108.88574707 413.17934082 -109.77149414 413.35868164 -110.68408203 413.54345703 C-139.15225332 418.99043565 -170.71858532 417.78749324 -199 412 C-200.22614014 411.75975098 -200.22614014 411.75975098 -201.47705078 411.51464844 C-241.30878477 403.5769515 -279.08047267 383.44700648 -308.83203125 355.9765625 C-310.71434468 354.2604353 -312.63431566 352.64947912 -314.625 351.0625 C-315.40875 350.381875 -316.1925 349.70125 -317 349 C-317 348.34 -317 347.68 -317 347 C-317.99 346.67 -318.98 346.34 -320 346 C-320 345.34 -320 344.68 -320 344 C-320.66 344 -321.32 344 -322 344 C-324.58237689 341.57998813 -326.74783583 338.72382158 -329 336 C-329.64702881 335.2272876 -329.64702881 335.2272876 -330.30712891 334.43896484 C-365.82968487 291.87880449 -386.44205076 239.36843411 -386.31567383 183.72045898 C-386.31252285 180.8334335 -386.33604106 177.94744611 -386.36132812 175.06054688 C-386.41739415 158.64158418 -384.74989569 142.45640598 -380.75 126.5 C-380.54020508 125.64801025 -380.33041016 124.79602051 -380.11425781 123.91821289 C-370.86589523 87.50862382 -353.55499628 53.92753405 -328.5234375 25.84765625 C-326.88082893 23.99400045 -325.29760669 22.08539952 -323.7890625 20.12109375 C-323.19867188 19.42113281 -322.60828125 18.72117187 -322 18 C-321.34 18 -320.68 18 -320 18 C-319.77699219 17.443125 -319.55398438 16.88625 -319.32421875 16.3125 C-311.02901326 1.82647744 -289.94409288 -10.36564808 -276 -19 C-275.23478027 -19.474375 -274.46956055 -19.94875 -273.68115234 -20.4375 C-243.63962956 -38.82513857 -209.28442317 -50.77885492 -174.12011719 -53.81640625 C-172.15415222 -53.98665103 -170.19021212 -54.1798547 -168.2265625 -54.375 C-107.1744471 -59.49467425 -46.84987889 -38.7054463 0 0 Z M-211 -31 C-211.80244141 -30.77973145 -212.60488281 -30.55946289 -213.43164062 -30.33251953 C-236.73353353 -23.79488576 -258.20523996 -12.83415303 -278 1 C-279.34964844 1.91845703 -279.34964844 1.91845703 -280.7265625 2.85546875 C-287.3493386 7.4837777 -293.19624637 12.70720777 -299.0546875 18.2421875 C-301.26511963 20.32974027 -303.52383093 22.32056529 -305.875 24.25 C-308.87259231 26.78810735 -311.40974605 29.57847416 -313.94140625 32.578125 C-315.47931325 34.38742735 -317.05630123 36.16364259 -318.65234375 37.921875 C-327.30293623 47.53203387 -334.24686221 57.9961334 -341 69 C-341.64412842 70.03229736 -341.64412842 70.03229736 -342.30126953 71.08544922 C-356.42169987 93.88567312 -364.48549728 120.71995103 -369 147 C-369.3403125 148.82724609 -369.3403125 148.82724609 -369.6875 150.69140625 C-378.42853265 205.99057806 -362.04195683 264.70129682 -329.9375 309.8125 C-325.80991944 315.36050302 -321.42080937 320.68490477 -317 326 C-316.46890625 326.66773438 -315.9378125 327.33546875 -315.390625 328.0234375 C-314.30399959 329.38491522 -313.15946521 330.69999355 -312 332 C-311.34 332 -310.68 332 -310 332 C-309.73227783 332.59603027 -309.46455566 333.19206055 -309.1887207 333.80615234 C-307.98438605 336.02881638 -306.81460278 337.38145788 -304.98046875 339.1015625 C-304.37734863 339.6689917 -303.77422852 340.2364209 -303.15283203 340.82104492 C-302.50427246 341.4163501 -301.85571289 342.01165527 -301.1875 342.625 C-300.51315918 343.24673096 -299.83881836 343.86846191 -299.14404297 344.5090332 C-268.80440661 372.15696269 -230.43960183 390.98029553 -190 398 C-189.07364746 398.16081055 -188.14729492 398.32162109 -187.19287109 398.48730469 C-129.26212282 408.052041 -70.33676736 393.83749953 -22.671875 359.953125 C-14.25524372 353.84244716 -6.45956184 347.2542528 1 340 C1.56992676 339.45053711 2.13985352 338.90107422 2.72705078 338.33496094 C43.66686365 298.73290593 68.2626504 243.73254292 69.23242188 186.6081543 C69.51223399 140.11659496 57.11247028 94.14661517 30 56 C29.25234375 54.94039063 28.5046875 53.88078125 27.734375 52.7890625 C-1.41631021 12.83794356 -42.95004718 -18.10540664 -91 -31 C-92.22203125 -31.33572021 -92.22203125 -31.33572021 -93.46875 -31.67822266 C-132.20214623 -42.16104575 -172.37850934 -41.67172768 -211 -31 Z " fill="#06AA81" transform="translate(401,69)"/>
<path d="M0 0 C-6.760815 5.61101653 -15.97559952 5.27165038 -24.41015625 5.75390625 C-26.92805444 5.71570575 -26.92805444 5.71570575 -28 7 C-29.50418739 7.09311889 -31.01271356 7.11746028 -32.51977539 7.11352539 C-33.96115623 7.11341209 -33.96115623 7.11341209 -35.43165588 7.11329651 C-36.476436 7.10813522 -37.52121613 7.10297394 -38.59765625 7.09765625 C-39.66165146 7.0962413 -40.72564667 7.09482635 -41.82188416 7.09336853 C-45.23545083 7.08775064 -48.648953 7.07519511 -52.0625 7.0625 C-54.37044176 7.05748731 -56.67838455 7.052924 -58.98632812 7.04882812 C-64.65757426 7.0377754 -70.32878253 7.02101987 -76 7 C-76.33 6.34 -76.66 5.68 -77 5 C-75.9797876 5.01571045 -74.9595752 5.0314209 -73.90844727 5.04760742 C-40.16639593 5.53788994 -40.16639593 5.53788994 -6.89208984 0.39257812 C-4.56747718 -0.08974151 -2.36571423 -0.15262672 0 0 Z " fill="#1EA081" transform="translate(303,464)"/>
<path d="M0 0 C0.66 1.32 1.32 2.64 2 4 C2.99 3.67 3.98 3.34 5 3 C5.99 3.33 6.98 3.66 8 4 C8.33 4.99 8.66 5.98 9 7 C10.2684375 7.99 10.2684375 7.99 11.5625 9 C12.366875 9.66 13.17125 10.32 14 11 C14 11.99 14 12.98 14 14 C16.97 14.66 19.94 15.32 23 16 C23 16.33 23 16.66 23 17 C15.94536687 17.43191631 11.4760827 15.76182807 5.75 11.6875 C2.90909554 8.91116155 1.44065215 6.6816666 0 3 C0 2.01 0 1.02 0 0 Z " fill="#10A580" transform="translate(190,360)"/>
<path d="M0 0 C0.33 0 0.66 0 1 0 C1.02689216 1.47906892 1.04634621 2.95827483 1.0625 4.4375 C1.07410156 5.26121094 1.08570313 6.08492187 1.09765625 6.93359375 C1 9 1 9 0 10 C-0.20670168 12.10146707 -0.41294632 14.20297987 -0.6171875 16.3046875 C-1.01700526 19.11973093 -1.71624175 21.70576008 -2.5 24.4375 C-4.64257882 32.49568667 -4.7328528 40.70922488 -5 49 C-5.99 49.495 -5.99 49.495 -7 50 C-8.05874439 33.25615351 -3.89112749 16.17681935 0 0 Z " fill="#1C9E7F" transform="translate(22,188)"/>
<path d="M0 0 C1.32 0 2.64 0 4 0 C3.43615943 6.73432123 1.65441874 12.63458974 -0.5625 19 C-1.0565332 20.44826172 -1.0565332 20.44826172 -1.56054688 21.92578125 C-2.36686202 24.28629806 -3.18012163 26.64416717 -4 29 C-5.14109582 25.57671253 -4.84733551 24.93397825 -3.625 21.6875 C-1.14728674 15.0119787 -1.14728674 15.0119787 -1.9375 8.125 C-2.288125 7.42375 -2.63875 6.7225 -3 6 C-2.34 6 -1.68 6 -1 6 C-0.67 4.02 -0.34 2.04 0 0 Z " fill="#14A480" transform="translate(475,303)"/>
<path d="M0 0 C1.22589844 0.01353516 1.22589844 0.01353516 2.4765625 0.02734375 C3.41628906 0.04474609 3.41628906 0.04474609 4.375 0.0625 C1.7284665 2.7090335 -1.18721264 3.66191997 -4.625 5.0625 C-0.335 6.3825 3.955 7.7025 8.375 9.0625 C8.375 9.3925 8.375 9.7225 8.375 10.0625 C6.065 10.7225 3.755 11.3825 1.375 12.0625 C0.715 11.0725 0.055 10.0825 -0.625 9.0625 C-4.19269552 8.32643501 -4.19269552 8.32643501 -7.625 8.0625 C-7.36938677 5.7193787 -7.03229228 3.38406597 -6.625 1.0625 C-4.21954362 -0.14022819 -2.67503047 -0.03821472 0 0 Z " fill="#13A17E" transform="translate(122.625,234.9375)"/>
<path d="M0 0 C0.99 0.33 1.98 0.66 3 1 C3.12375 2.19625 3.2475 3.3925 3.375 4.625 C3.96243952 9.29142095 4.57918192 13.57918192 8 17 C9.33034463 20.5919305 9.07279423 24.21470013 9 28 C6.70892218 25.70892218 6.25136022 24.19585591 5.2734375 21.1328125 C4.9640625 20.16472656 4.6546875 19.19664062 4.3359375 18.19921875 C4.01882812 17.18472656 3.70171875 16.17023438 3.375 15.125 C2.88773438 13.61486328 2.88773438 13.61486328 2.390625 12.07421875 C1.0461209 7.82038856 0 4.50049442 0 0 Z " fill="#1CA380" transform="translate(22,307)"/>
<path d="M0 0 C0 2 0 4 0 6 C-0.66 6 -1.32 6 -2 6 C-2.33 6.99 -2.66 7.98 -3 9 C-3.66 9 -4.32 9 -5 9 C-4.85820962 11.22942748 -4.71140302 13.45853628 -4.5625 15.6875 C-4.48128906 16.92886719 -4.40007812 18.17023438 -4.31640625 19.44921875 C-4.05508683 22.38180337 -3.65201621 25.13441617 -3 28 C-6.72854103 23.46090657 -7.30647771 19.98562578 -7.21875 14.0859375 C-6.6264059 8.43751339 -3.6548388 4.1589545 0 0 Z " fill="#1C9F7E" transform="translate(92,224)"/>
<path d="M0 0 C8.05293006 -0.4026465 8.05293006 -0.4026465 12 3 C14.64934822 3.71433121 14.64934822 3.71433121 17 4 C17 4.66 17 5.32 17 6 C18.546875 6.185625 18.546875 6.185625 20.125 6.375 C23.62116846 6.93889814 26.68397627 7.78682059 30 9 C26.85457134 10.02503349 25.06401461 9.97363192 21.953125 8.890625 C21.19 8.63023437 20.426875 8.36984375 19.640625 8.1015625 C18.85171875 7.82054687 18.0628125 7.53953125 17.25 7.25 C16.4765625 6.98445313 15.703125 6.71890625 14.90625 6.4453125 C9.90461267 4.71655866 4.94827842 2.87537493 0 1 C0 0.67 0 0.34 0 0 Z " fill="#1EA181" transform="translate(159,467)"/>
<path d="M0 0 C0.66 0.33 1.32 0.66 2 1 C1.360625 1.763125 0.72125 2.52625 0.0625 3.3125 C-2.14232781 5.88246713 -2.14232781 5.88246713 -3 9 C-3.66 9 -4.32 9 -5 9 C-5 9.99 -5 10.98 -5 12 C-8 12 -11 12 -14 12 C-9.38 8.04 -4.76 4.08 0 0 Z " fill="#12A380" transform="translate(226,338)"/>
<path d="M0 0 C-5.16129052 3.44086035 -11.70260333 7 -18 7 C-18.33 7.99 -18.66 8.98 -19 10 C-21.97 10 -24.94 10 -28 10 C-23.48161616 6.98774411 -18.4782689 5.29029107 -13.4375 3.3125 C-12.37080078 2.88388672 -11.30410156 2.45527344 -10.20507812 2.01367188 C-9.18736328 1.61341797 -8.16964844 1.21316406 -7.12109375 0.80078125 C-5.72008423 0.24644409 -5.72008423 0.24644409 -4.29077148 -0.3190918 C-2 -1 -2 -1 0 0 Z " fill="#1CA07F" transform="translate(169,194)"/>
<path d="M0 0 C0.33 0 0.66 0 1 0 C1.32374517 5.50366792 1.53286034 9.43672206 -2 14 C-4.31 13.67 -6.62 13.34 -9 13 C-9 12.34 -9 11.68 -9 11 C-10.65 10.67 -12.3 10.34 -14 10 C-14.33 8.68 -14.66 7.36 -15 6 C-10.9695475 8.29182593 -6.97699467 10.6138032 -3 13 C-2.01 8.71 -1.02 4.42 0 0 Z " fill="#15A07E" transform="translate(346,354)"/>
<path d="M0 0 C1.75972078 2.63958118 2.69589746 4.64748769 3.7265625 7.59765625 C4.0359375 8.48130859 4.3453125 9.36496094 4.6640625 10.27539062 C4.98117188 11.19513672 5.29828125 12.11488281 5.625 13.0625 C6.11226562 14.44791992 6.11226562 14.44791992 6.609375 15.86132812 C9 22.73688616 9 22.73688616 9 25 C7.68 24.67 6.36 24.34 5 24 C4.87625 22.80375 4.7525 21.6075 4.625 20.375 C4.17821896 16.71657556 3.21542793 13.48422672 2 10 C2 9.01 2 8.02 2 7 C0.68 7.33 -0.64 7.66 -2 8 C-1.67 7.4225 -1.34 6.845 -1 6.25 C0.27075898 3.80116138 0.27075898 3.80116138 0 0 Z " fill="#18A382" transform="translate(38,311)"/>
<path d="M0 0 C0 0.66 0 1.32 0 2 C-0.89203125 2.32613281 -1.7840625 2.65226563 -2.703125 2.98828125 C-3.87359375 3.42527344 -5.0440625 3.86226562 -6.25 4.3125 C-7.41015625 4.74175781 -8.5703125 5.17101562 -9.765625 5.61328125 C-12.94150886 6.80946674 -12.94150886 6.80946674 -15.0625 8.625 C-17.63454825 10.45032456 -19.62815988 10.50167618 -22.75 10.6875 C-23.73484375 10.75324219 -24.7196875 10.81898438 -25.734375 10.88671875 C-26.48203125 10.92410156 -27.2296875 10.96148437 -28 11 C-25.23122659 9.15415106 -22.8262269 8.04336455 -19.74609375 6.8359375 C-18.72708984 6.43632812 -17.70808594 6.03671875 -16.65820312 5.625 C-15.06395508 5.00625 -15.06395508 5.00625 -13.4375 4.375 C-12.37080078 3.95476562 -11.30410156 3.53453125 -10.20507812 3.1015625 C-2.25480672 0 -2.25480672 0 0 0 Z " fill="#1E9E80" transform="translate(327,131)"/>
<path d="M0 0 C1.32 1.32 2.64 2.64 4 4 C2.329375 4.4021875 2.329375 4.4021875 0.625 4.8125 C-3.21840951 5.65809019 -3.21840951 5.65809019 -5 9 C-8.55555556 12 -8.55555556 12 -11 12 C-11 12.99 -11 13.98 -11 15 C-12.65 15.33 -14.3 15.66 -16 16 C-12.63699159 11.69114547 -9.03918174 8.14405459 -4.8671875 4.61328125 C-3.16296232 3.14080217 -1.56975784 1.61363306 0 0 Z " fill="#17A280" transform="translate(291,203)"/>
<path d="M0 0 C0.99 0.66 1.98 1.32 3 2 C2.27683594 3.21236328 2.27683594 3.21236328 1.5390625 4.44921875 C0.90742187 5.51785156 0.27578125 6.58648437 -0.375 7.6875 C-1.31472656 9.27111328 -1.31472656 9.27111328 -2.2734375 10.88671875 C-3.75442713 13.557191 -4.94913815 16.13932051 -6 19 C-6.33 19 -6.66 19 -7 19 C-8.22159091 12.64772727 -8.22159091 12.64772727 -7.1875 9.625 C-6 8 -6 8 -4 7 C-3.34 7.33 -2.68 7.66 -2 8 C-1.34 5.36 -0.68 2.72 0 0 Z " fill="#17A37E" transform="translate(56,140)"/>
<path d="M0 0 C0.66 0.99 1.32 1.98 2 3 C1.67 3.66 1.34 4.32 1 5 C1.99 5.33 2.98 5.66 4 6 C3.67 6.99 3.34 7.98 3 9 C3 9.99 3 10.98 3 12 C1.625 13.6875 1.625 13.6875 0 15 C-0.66 15 -1.32 15 -2 15 C-1.47462276 9.9697924 -0.89405214 4.98114761 0 0 Z " fill="#0DA580" transform="translate(363,271)"/>
<path d="M0 0 C-0.99 0.33 -1.98 0.66 -3 1 C-3 2.32 -3 3.64 -3 5 C-3.886875 4.814375 -4.77375 4.62875 -5.6875 4.4375 C-8.87480119 4.01653569 -10.95387787 4.04264733 -14 5 C-14.33 5.66 -14.66 6.32 -15 7 C-16.65 7 -18.3 7 -20 7 C-17.16142754 4.16142754 -13.6940834 3.1848649 -10 1.8125 C-8.89398438 1.38420898 -8.89398438 1.38420898 -7.765625 0.94726562 C-2.24553571 -1.12276786 -2.24553571 -1.12276786 0 0 Z " fill="#1E9E7D" transform="translate(215,176)"/>
<path d="M0 0 C0.33 0 0.66 0 1 0 C1 3.63 1 7.26 1 11 C0.34 11 -0.32 11 -1 11 C-0.938125 12.19625 -0.87625 13.3925 -0.8125 14.625 C-0.79056063 18.73497595 -1.86869566 21.4478261 -4 25 C-5.11991797 21.63684208 -4.85748516 19.42994063 -4.00390625 16.015625 C-3.77509766 15.08105469 -3.54628906 14.14648438 -3.31054688 13.18359375 C-3.06369141 12.21550781 -2.81683594 11.24742187 -2.5625 10.25 C-2.19801758 8.77466797 -2.19801758 8.77466797 -1.82617188 7.26953125 C-1.22571669 4.84416327 -0.61673274 2.42127055 0 0 Z " fill="#1D9E7F" transform="translate(466,289)"/>
<path d="M0 0 C0.886875 0.391875 1.77375 0.78375 2.6875 1.1875 C0.30624536 3.56875464 -1.65107567 4.18936241 -4.8125 5.3125 C-5.7921875 5.66570312 -6.771875 6.01890625 -7.78125 6.3828125 C-10.3125 7.1875 -10.3125 7.1875 -12.3125 7.1875 C-12.3125 6.5275 -12.3125 5.8675 -12.3125 5.1875 C-11.3225 5.1875 -10.3325 5.1875 -9.3125 5.1875 C-8.9825 4.1975 -8.6525 3.2075 -8.3125 2.1875 C-5.14637815 -0.4358581 -4.07097762 -0.99854168 0 0 Z " fill="#12A480" transform="translate(165.3125,217.8125)"/>
<path d="M0 0 C0.33 0.66 0.66 1.32 1 2 C0 5 0 5 -2 6 C-2.33 6.825 -2.66 7.65 -3 8.5 C-4 11 -4 11 -6 12 C-6.309375 12.825 -6.61875 13.65 -6.9375 14.5 C-7.288125 15.325 -7.63875 16.15 -8 17 C-8.99 17.33 -9.98 17.66 -11 18 C-9.51971645 13.81490516 -7.42574276 10.41688407 -4.9375 6.75 C-4.22464844 5.69296875 -3.51179688 4.6359375 -2.77734375 3.546875 C-1 1 -1 1 0 0 Z " fill="#1A9D7D" transform="translate(59,112)"/>
<path d="M0 0 C1.77722161 3.55444321 3.00593805 6.84570798 4.1875 10.625 C4.55230469 11.77226562 4.91710937 12.91953125 5.29296875 14.1015625 C6 17 6 17 5 19 C4.34 18.67 3.68 18.34 3 18 C2.40644386 15.35139573 2.25790731 12.70802678 2 10 C1.34 10 0.68 10 0 10 C0 6.7 0 3.4 0 0 Z " fill="#15A37F" transform="translate(201,314)"/>
<path d="M0 0 C1.32 0.66 2.64 1.32 4 2 C1.14723863 4.93200474 -1.65079784 7.64315404 -5 10 C-5.66 9.67 -6.32 9.34 -7 9 C-6.67 8.34 -6.34 7.68 -6 7 C-5.34 7 -4.68 7 -4 7 C-3.896875 6.21625 -3.79375 5.4325 -3.6875 4.625 C-3 2 -3 2 0 0 Z " fill="#10A37D" transform="translate(233,360)"/>
<path d="M0 0 C0 0.66 0 1.32 0 2 C-1.85625 2.680625 -1.85625 2.680625 -3.75 3.375 C-5.94844983 4.18981008 -7.95495995 4.97466497 -10 6.125 C-13.21783472 7.53280269 -16.51737123 7.65173712 -20 8 C-17.16443197 5.16443197 -13.69624132 4.22554971 -10 2.875 C-9.26265625 2.59785156 -8.5253125 2.32070312 -7.765625 2.03515625 C-2.27170567 0 -2.27170567 0 0 0 Z " fill="#209E7F" transform="translate(261,157)"/>
<path d="M0 0 C6.52522047 3.0209354 12.19623036 6.76610248 18 11 C17.01 11.495 17.01 11.495 16 12 C14.31791365 11.02616054 12.65261839 10.02304948 11 9 C10.34 8.87625 9.68 8.7525 9 8.625 C5.88553382 7.65172932 4.20870051 5.32494791 2 3 C1.34 2.67 0.68 2.34 0 2 C0 1.34 0 0.68 0 0 Z " fill="#1E9C7C" transform="translate(369,47)"/>
<path d="M0 0 C2.475 0.495 2.475 0.495 5 1 C4.67 2.98 4.34 4.96 4 7 C4.99 7.33 5.98 7.66 7 8 C7 9.98 7 11.96 7 14 C4.08773121 12.5438656 3.68157936 10.50039336 2.375 7.5625 C1.70597656 6.07943359 1.70597656 6.07943359 1.0234375 4.56640625 C0 2 0 2 0 0 Z " fill="#11A47F" transform="translate(35,345)"/>
<path d="M0 0 C0.33 0 0.66 0 1 0 C1 1.65 1 3.3 1 5 C0.34 5 -0.32 5 -1 5 C-0.67 6.98 -0.34 8.96 0 11 C-1.98 11.99 -1.98 11.99 -4 13 C-4 13.66 -4 14.32 -4 15 C-4.66 15 -5.32 15 -6 15 C-4.36041242 9.76727367 -2.61047965 4.84803364 0 0 Z " fill="#1A9F7F" transform="translate(452,336)"/>
<path d="M0 0 C1.20220203 3.53094302 0.79532349 6.12898982 0.0625 9.75 C-0.13214844 10.73484375 -0.32679688 11.7196875 -0.52734375 12.734375 C-0.68332031 13.48203125 -0.83929688 14.2296875 -1 15 C-1.33 15 -1.66 15 -2 15 C-2 12.69 -2 10.38 -2 8 C-2.66 8 -3.32 8 -4 8 C-4 6.35 -4 4.7 -4 3 C-2.68 2.67 -1.36 2.34 0 2 C0 1.34 0 0.68 0 0 Z " fill="#11A380" transform="translate(396,227)"/>
<path d="M0 0 C-1.5830577 4.2742558 -4.50568404 6.26531794 -8 9 C-8.33 7.35 -8.66 5.7 -9 4 C-2.39130435 0 -2.39130435 0 0 0 Z " fill="#0CA47E" transform="translate(260,265)"/>
<path d="M0 0 C0 4.71788769 -2.74458888 7.73046562 -6 11 C-8.42384264 12.19498829 -10.2963801 12.56742082 -13 13 C-8.66666667 8.66666667 -4.33333333 4.33333333 0 0 Z " fill="#18A07E" transform="translate(243,248)"/>
<path d="M0 0 C1.77388086 1.09926403 3.54399684 2.20460502 5.3125 3.3125 C6.29863281 3.92738281 7.28476563 4.54226563 8.30078125 5.17578125 C10.50172035 6.66324661 12.23328988 8.0403386 14 10 C11.69 9.67 9.38 9.34 7 9 C6.67 7.68 6.34 6.36 6 5 C4.35 4.67 2.7 4.34 1 4 C0.67 2.68 0.34 1.36 0 0 Z " fill="#1B9E7E" transform="translate(122,429)"/>
<path d="M0 0 C0 4.13781054 -1.71509607 5.20919996 -4.5 8.1875 C-5.3353125 9.08855469 -6.170625 9.98960937 -7.03125 10.91796875 C-8.00578125 11.94857422 -8.00578125 11.94857422 -9 13 C-10.32 12.67 -11.64 12.34 -13 12 C-12.14535156 11.21753906 -11.29070312 10.43507813 -10.41015625 9.62890625 C-9.29425993 8.60678273 -8.17837511 7.58464667 -7.0625 6.5625 C-6.21655273 5.7880957 -6.21655273 5.7880957 -5.35351562 4.99804688 C-2.64001674 2.53775333 -2.64001674 2.53775333 0 0 Z " fill="#1F9F80" transform="translate(403,407)"/>
<path d="M0 0 C0.33 0.66 0.66 1.32 1 2 C0.39351421 3.68949614 -0.27840576 5.35636866 -1 7 C-1.33 7.99 -1.66 8.98 -2 10 C-2.33 9.34 -2.66 8.68 -3 8 C-4.32 9.32 -5.64 10.64 -7 12 C-7.66 11.67 -8.32 11.34 -9 11 C-7.68823998 9.35357683 -6.3755713 7.70787757 -5.0625 6.0625 C-4.33160156 5.14597656 -3.60070312 4.22945313 -2.84765625 3.28515625 C-1 1 -1 1 0 0 Z " fill="#149F7D" transform="translate(70,98)"/>
<path d="M0 0 C-2.37091224 2.93993117 -3.6120164 3.9209663 -7.375 4.6875 C-8.57125 4.790625 -9.7675 4.89375 -11 5 C-13.00097458 5.3274322 -15.00133314 5.65876419 -17 6 C-14.42166561 3.42166561 -11.89674219 2.6238529 -8.5 1.3125 C-7.3346875 0.85488281 -6.169375 0.39726563 -4.96875 -0.07421875 C-2 -1 -2 -1 0 0 Z " fill="#1CA080" transform="translate(360,119)"/>
<path d="M0 0 C2.74792483 3.40219265 6 7.48464588 6 12 C5.34 12 4.68 12 4 12 C3.67 11.34 3.34 10.68 3 10 C2.01 10 1.02 10 0 10 C0.33 7.69 0.66 5.38 1 3 C0.34 2.67 -0.32 2.34 -1 2 C-0.67 1.34 -0.34 0.68 0 0 Z " fill="#17A27E" transform="translate(50,343)"/>
<path d="M0 0 C0 0.66 0 1.32 0 2 C-8.13496933 5.66871166 -8.13496933 5.66871166 -12 6 C-12.66 5.34 -13.32 4.68 -14 4 C-12.0429132 3.32968281 -10.08428887 2.66385317 -8.125 2 C-7.03445313 1.62875 -5.94390625 1.2575 -4.8203125 0.875 C-2 0 -2 0 0 0 Z " fill="#1FA080" transform="translate(336,453)"/>
<path d="M0 0 C0.7425 0.391875 1.485 0.78375 2.25 1.1875 C-0.70183101 4.13933101 -3.70511947 4.27413988 -7.75 5.1875 C-6.3370595 0.94867851 -4.60760025 -1.36133644 0 0 Z " fill="#10A580" transform="translate(247.75,185.8125)"/>
<path d="M0 0 C1.12737713 3.38213139 1.06292002 4.64771379 0 8 C-2.0625 10.3125 -2.0625 10.3125 -4 12 C-4.33 11.34 -4.66 10.68 -5 10 C-4.00390625 7.6171875 -4.00390625 7.6171875 -2.5625 4.875 C-1.85287109 3.50988281 -1.85287109 3.50988281 -1.12890625 2.1171875 C-0.75636719 1.41851562 -0.38382813 0.71984375 0 0 Z " fill="#1A9F7F" transform="translate(41,140)"/>
<path d="M0 0 C0.33 0.66 0.66 1.32 1 2 C4.02934491 2.65772428 4.02934491 2.65772428 7 3 C7.33 4.32 7.66 5.64 8 7 C6.88625 6.5359375 6.88625 6.5359375 5.75 6.0625 C3.49307824 5.1905075 1.3549847 4.52332993 -1 4 C-0.67 2.68 -0.34 1.36 0 0 Z " fill="#12A57F" transform="translate(260,337)"/>
<path d="M0 0 C3.465 1.98 3.465 1.98 7 4 C4.39902318 5.30048841 1.86044938 5.56471422 -1 6 C-1.33 4.68 -1.66 3.36 -2 2 C-1.34 2 -0.68 2 0 2 C0 1.34 0 0.68 0 0 Z " fill="#0FA47E" transform="translate(299,337)"/>
<path d="M0 0 C0.226875 0.556875 0.45375 1.11375 0.6875 1.6875 C2.35896766 4.63246684 4.55276352 6.68156544 7 9 C2.95579349 7.22054913 -0.46078487 4.60470327 -4 2 C-2.68 1.34 -1.36 0.68 0 0 Z " fill="#1BA283" transform="translate(301,364)"/>
<path d="M0 0 C3.08089673 2.77280706 4.68775452 5.06326356 6 9 C4.35 8.67 2.7 8.34 1 8 C1.66 7.67 2.32 7.34 3 7 C2.34 6.34 1.68 5.68 1 5 C0.67 5 0.34 5 0 5 C0 3.35 0 1.7 0 0 Z " fill="#18A07F" transform="translate(443,116)"/>
<path d="M0 0 C2.00720923 0.28674418 4.0085944 0.61866701 6 1 C1.375 5 1.375 5 -2 5 C-1.125 1.125 -1.125 1.125 0 0 Z " fill="#16A382" transform="translate(366,450)"/>
<path d="M0 0 C0.33 0 0.66 0 1 0 C1.05447047 1.41623216 1.09300508 2.83308191 1.125 4.25 C1.14820313 5.03890625 1.17140625 5.8278125 1.1953125 6.640625 C0.9828378 9.20731941 0.28654105 10.7916067 -1 13 C-1.66 13 -2.32 13 -3 13 C-2.01 8.71 -1.02 4.42 0 0 Z " fill="#219D81" transform="translate(346,354)"/>
<path d="M0 0 C3.465 1.98 3.465 1.98 7 4 C5.1875 5.0625 5.1875 5.0625 3 6 C2.01 5.67 1.02 5.34 0 5 C0 3.35 0 1.7 0 0 Z " fill="#10A27E" transform="translate(306,342)"/>
<path d="M0 0 C6.4 -0.49230769 6.4 -0.49230769 9.4375 2 C10.2109375 2.99 10.2109375 2.99 11 4 C9.53984709 3.71758359 8.08190207 3.42373386 6.625 3.125 C5.81289062 2.96257812 5.00078125 2.80015625 4.1640625 2.6328125 C2 2 2 2 0 0 Z " fill="#16A682" transform="translate(143,273)"/>
<path d="M0 0 C1.45047396 2.90094791 0.45356803 4.55972596 -0.4375 7.625 C-0.86869141 9.12933594 -0.86869141 9.12933594 -1.30859375 10.6640625 C-1.53675781 11.43492187 -1.76492187 12.20578125 -2 13 C-2.33 13 -2.66 13 -3 13 C-4.47692308 5.73846154 -4.47692308 5.73846154 -2.0625 2 C-1.381875 1.34 -0.70125 0.68 0 0 Z " fill="#15A17F" transform="translate(38,187)"/>
<path d="M0 0 C4.38889325 0.66498383 7.9811485 2.18757677 12 4 C12 4.33 12 4.66 12 5 C10.02 5 8.04 5 6 5 C6 4.34 6 3.68 6 3 C4.68 3 3.36 3 2 3 C2 2.34 2 1.68 2 1 C1.34 0.67 0.68 0.34 0 0 Z " fill="#1F9F7E" transform="translate(333,30)"/>
<path d="M0 0 C0 0.99 0 1.98 0 3 C-1.28745036 3.38922918 -2.58019597 3.76098036 -3.875 4.125 C-4.95394531 4.43824219 -4.95394531 4.43824219 -6.0546875 4.7578125 C-6.69664062 4.83773437 -7.33859375 4.91765625 -8 5 C-8.66 4.34 -9.32 3.68 -10 3 C-8.70990357 2.49596232 -7.41786211 1.99690074 -6.125 1.5 C-5.04605469 1.08234375 -5.04605469 1.08234375 -3.9453125 0.65625 C-2 0 -2 0 0 0 Z " fill="#17A27F" transform="translate(286,147)"/>
<path d="M0 0 C1.2065625 0.0309375 1.2065625 0.0309375 2.4375 0.0625 C1.625 2 1.625 2 0.4375 4.0625 C-0.5525 4.3925 -1.5425 4.7225 -2.5625 5.0625 C-3.125 3.125 -3.125 3.125 -3.5625 1.0625 C-2.5625 0.0625 -2.5625 0.0625 0 0 Z " fill="#0EA67F" transform="translate(79.5625,106.9375)"/>
<path d="M0 0 C0.33 1.32 0.66 2.64 1 4 C-0.96466413 5.06775224 -2.96855359 6.06553465 -5 7 C-5.66 6.67 -6.32 6.34 -7 6 C-4.69 4.02 -2.38 2.04 0 0 Z " fill="#15A07F" transform="translate(105,64)"/>
<path d="M0 0 C6.875 3.75 6.875 3.75 8 6 C5.69 6 3.38 6 1 6 C1.33 4.68 1.66 3.36 2 2 C1.34 2 0.68 2 0 2 C0 1.34 0 0.68 0 0 Z " fill="#11A07D" transform="translate(249,301)"/>
<path d="M0 0 C2.54938804 1.27469402 2.74579613 2.49159226 4 5 C5.5412312 6.70921589 5.5412312 6.70921589 7 8 C2.25 7.125 2.25 7.125 0 6 C0 4.02 0 2.04 0 0 Z " fill="#1B9E7E" transform="translate(235,288)"/>
<path d="M0 0 C1.32 1.32 2.64 2.64 4 4 C1.03 4.66 -1.94 5.32 -5 6 C-3.35 4.02 -1.7 2.04 0 0 Z " fill="#1F9A7A" transform="translate(291,203)"/>
<path d="M0 0 C-0.639375 0.28875 -1.27875 0.5775 -1.9375 0.875 C-4.15206079 1.82823451 -4.15206079 1.82823451 -5 4 C-6.98 4 -8.96 4 -11 4 C-3.77464789 -1.88732394 -3.77464789 -1.88732394 0 0 Z " fill="#229F81" transform="translate(347,449)"/>
<path d="M0 0 C6.625 0.75 6.625 0.75 10 3 C5.545 3.495 5.545 3.495 1 4 C1.33 3.01 1.66 2.02 2 1 C1.34 0.67 0.68 0.34 0 0 Z " fill="#14A27E" transform="translate(147,250)"/>
<path d="M0 0 C0.66 0.33 1.32 0.66 2 1 C1.01 1.33 0.02 1.66 -1 2 C-1 3.32 -1 4.64 -1 6 C-2.32 5.67 -3.64 5.34 -5 5 C-4.1875 3.0625 -4.1875 3.0625 -3 1 C-2.01 0.67 -1.02 0.34 0 0 Z " fill="#14A482" transform="translate(213,175)"/>
<path d="M0 0 C3.09162264 1.38589981 4.49183541 2.49183541 7 5 C2.545 4.01 2.545 4.01 -2 3 C-1.34 2.67 -0.68 2.34 0 2 C0 1.34 0 0.68 0 0 Z " fill="#14A07E" transform="translate(108,419)"/>
<path d="M0 0 C5.875 3.75 5.875 3.75 7 6 C2.25 5.25 2.25 5.25 0 3 C0 2.01 0 1.02 0 0 Z " fill="#1A9E7D" transform="translate(402,111)"/>
<path d="M0 0 C2.64 0 5.28 0 8 0 C8.66 1.32 9.32 2.64 10 4 C6.7 3.01 3.4 2.02 0 1 C0 0.67 0 0.34 0 0 Z " fill="#1FA182" transform="translate(326,43)"/>
<path d="M0 0 C2.475 0.495 2.475 0.495 5 1 C5 3.31 5 5.62 5 8 C1.75267068 6.37633534 1.29844864 3.24612161 0 0 Z " fill="#20A687" transform="translate(37,351)"/>
<path d="M0 0 C2.7972908 2.06756277 3.02692273 3.14440371 3.6875 6.6875 C3.790625 7.780625 3.89375 8.87375 4 10 C1.997499 7.997499 1.06784629 6.593341 0 4 C0 2.68 0 1.36 0 0 Z " fill="#17A580" transform="translate(186,268)"/>
<path d="M0 0 C-1 3 -1 3 -3.375 4.25 C-6 5 -6 5 -9 4 C-2.25 0 -2.25 0 0 0 Z " fill="#1E9D7F" transform="translate(148,38)"/>
</svg>
